<svg xmlns="http://www.w3.org/2000/svg" viewBox="0 0 178.34 152.67"><defs><style>.cls-1{stroke:#000;stroke-miterlimit:10;fill-rule:evenodd;}</style></defs><g id="Layer_2" data-name="Layer 2"><g id="Layer_1-2" data-name="Layer 1"><path d="M73.5,25a48.82,48.82,0,0,1,34.8,82.75,47.9,47.9,0,0,1-34.8,14.82A48.79,48.79,0,0,1,73.5,25m0-25a73.79,73.79,0,0,0,0,147.57A73.68,73.68,0,0,0,147,73.79,73.65,73.65,0,0,0,73.5,0Z"/><path class="cls-1" d="M177.44,136l-10.95,15.3a2.1,2.1,0,0,1-2.92.49l-37.26-26.69a73.51,73.51,0,0,0,13.2-18.83L177,133.08A2.07,2.07,0,0,1,177.44,136Z"/><path class="cls-1" d="M139.51,106.26a73.51,73.51,0,0,1-13.2,18.83l-15.08-10.8a2.1,2.1,0,0,1-.49-2.92l11-15.3a2.1,2.1,0,0,1,2.92-.48Z"/></g></g></svg>